<?xml version="1.0" standalone="no"?>
<!DOCTYPE svg PUBLIC "-//W3C//DTD SVG 20010904//EN"
 "http://www.w3.org/TR/2001/REC-SVG-20010904/DTD/svg10.dtd">
<svg version="1.0" xmlns="http://www.w3.org/2000/svg"
 width="300.000000pt" height="286.000000pt" viewBox="0 0 300.000000 286.000000"
 preserveAspectRatio="xMidYMid meet">
<metadata>
Created by potrace 1.10, written by Peter Selinger 2001-2011
</metadata>
<g transform="translate(0.000000,286.000000) scale(0.100000,-0.100000)"
fill="#000000" stroke="none">
<path d="M675 2596 c-95 -57 -93 -159 7 -279 l40 -48 -35 -77 c-59 -127 -78
-205 -82 -323 -3 -133 7 -199 49 -310 45 -121 89 -192 171 -274 112 -112 248
-175 382 -175 l72 0 204 -407 c169 -336 210 -412 237 -431 60 -41 152 -21 186
40 26 45 16 100 -36 219 -27 62 -50 116 -50 120 0 3 26 9 57 12 84 9 171 56
237 128 48 54 69 91 106 192 l10 28 107 -96 c117 -103 155 -122 226 -109 28 4
53 18 75 40 32 32 34 38 30 88 -6 72 -43 127 -137 202 -112 90 -457 363 -523
414 l-57 44 7 46 c4 25 7 104 7 175 -1 106 -5 144 -24 205 -65 212 -207 398
-362 474 -86 42 -151 56 -258 56 -111 0 -196 -17 -285 -55 -44 -19 -80 -33
-81 -32 -23 39 -104 131 -125 142 -44 23 -108 19 -155 -9z m164 -43 c20 -21
52 -58 71 -82 l36 -44 95 36 c211 79 369 78 530 -4 102 -51 217 -175 282 -304
74 -149 105 -353 74 -498 l-14 -69 46 -38 c62 -53 552 -442 590 -470 40 -28
81 -98 87 -148 4 -32 0 -43 -22 -65 -33 -33 -84 -44 -126 -26 -34 14 -228 181
-323 278 -33 34 -64 61 -71 61 -7 0 -8 -17 -2 -57 4 -32 7 -77 6 -100 -2 -49
3 -57 32 -48 20 6 20 7 3 23 -13 12 -19 35 -21 82 l-4 65 50 -49 51 -49 -25
-66 c-74 -196 -197 -291 -381 -294 -39 -1 -69 -5 -67 -9 3 -5 13 -8 22 -8 12
0 33 -38 75 -135 60 -142 66 -169 42 -201 -13 -17 -14 -17 -15 -1 0 20 -62
168 -118 282 -23 45 -36 84 -31 89 4 5 23 11 41 12 113 10 145 17 201 44 77
36 181 128 196 172 l10 33 -27 -35 c-95 -121 -203 -185 -337 -197 -33 -3 -78
0 -100 6 -45 12 -54 8 -33 -16 22 -26 83 -148 144 -293 48 -113 51 -126 37
-137 -25 -19 -77 -16 -105 7 -16 12 -103 174 -232 430 l-207 410 -73 0 c-293
0 -538 253 -587 607 -21 145 15 321 92 462 l32 58 -47 58 c-59 73 -78 109 -79
151 -1 39 30 88 60 92 30 5 113 -57 161 -120 24 -32 54 -61 67 -64 15 -4 50 4
90 21 78 31 182 55 240 55 178 0 377 -111 473 -263 98 -156 130 -324 103 -539
-4 -32 -3 -65 2 -73 5 -9 118 -103 252 -210 134 -107 310 -251 390 -321 156
-134 210 -166 73 -43 -45 41 -93 85 -107 99 -14 13 -55 47 -91 74 -36 28 -70
55 -76 61 -6 5 -30 26 -53 45 -24 19 -48 40 -54 45 -7 6 -30 23 -52 39 -22 16
-48 37 -57 45 -32 30 -48 42 -48 36 0 -3 -10 4 -22 15 -13 11 -43 36 -68 56
-64 51 -79 82 -69 141 38 230 -36 485 -182 632 -53 52 -109 95 -154 118 -104
53 -285 69 -409 37 -33 -9 -68 -17 -76 -19 -8 -2 -32 -10 -52 -19 -36 -16 -68
-13 -68 6 0 5 -4 7 -8 4 -5 -3 -16 9 -26 25 -23 39 -83 95 -118 111 -38 18
-35 28 8 28 29 0 44 -8 73 -37z"/>
<path d="M873 2338 c-30 -22 -105 -117 -111 -141 -1 -7 5 -1 15 13 9 14 45 53
78 88 65 65 70 76 18 40z"/>
<path d="M1005 2315 c-16 -14 -25 -25 -18 -25 22 0 43 12 43 25 0 7 6 16 13
18 6 3 8 6 2 6 -5 0 -23 -11 -40 -24z"/>
<path d="M1063 2270 c-127 -27 -231 -131 -275 -273 -17 -56 -20 -86 -16 -161
9 -156 70 -289 185 -402 34 -35 63 -65 63 -67 0 -2 -12 -2 -27 1 l-26 5 19
-26 c21 -30 34 -34 34 -13 0 28 18 25 90 -12 72 -37 73 -37 194 -37 139 0 171
11 258 93 59 55 91 107 111 182 19 66 30 217 18 225 -5 3 -7 15 -3 27 4 15 2
19 -7 13 -10 -5 -11 -2 -6 14 3 11 2 21 -3 21 -6 0 -8 8 -6 18 2 9 -2 28 -10
42 -8 14 -24 45 -35 69 -42 89 -195 215 -320 264 -51 21 -178 30 -238 17z
m207 -31 c121 -28 265 -147 332 -275 48 -91 68 -169 68 -264 0 -133 -43 -234
-131 -314 -195 -175 -518 -81 -672 196 -42 75 -77 198 -77 272 0 114 48 232
121 301 99 93 207 118 359 84z"/>
<path d="M1070 1848 c-31 -34 -27 -95 10 -146 79 -110 195 -89 176 32 -18 109
-127 177 -186 114z m74 -71 c8 -21 6 -31 -5 -42 -13 -13 -17 -13 -37 1 -21 15
-30 53 -15 68 15 15 48 0 57 -27z m83 -14 c8 -21 8 -81 0 -89 -3 -4 -17 -4
-31 0 -30 7 -41 40 -27 79 12 31 48 37 58 10z"/>
<path d="M1761 1677 c-1 -87 -22 -158 -67 -233 -25 -42 -29 -53 -13 -38 54 49
108 241 88 314 -5 16 -7 0 -8 -43z"/>
<path d="M1766 1355 c-24 -44 -108 -124 -164 -156 -23 -13 -42 -27 -42 -31 0
-4 27 -66 60 -138 58 -127 66 -150 54 -150 -8 0 -64 40 -85 60 -48 46 -105
179 -81 188 15 5 44 33 39 38 -2 2 -20 -1 -40 -7 -34 -9 -37 -12 -31 -37 39
-159 137 -262 248 -262 124 0 290 163 312 306 l6 41 -126 91 c-69 51 -127 92
-129 92 -1 0 -11 -16 -21 -35z m130 -81 c49 -36 95 -69 103 -74 13 -7 13 -15
2 -51 -27 -94 -112 -194 -203 -240 -72 -37 -77 -33 -141 114 -57 132 -57 132
-37 147 51 36 127 106 149 137 13 18 27 33 31 33 4 0 47 -30 96 -66z"/>
<path d="M980 1275 c50 -51 56 -54 38 -22 -7 12 -12 25 -13 29 0 11 -38 37
-55 38 -8 0 5 -20 30 -45z"/>
<path d="M2256 1091 c30 -29 267 -201 277 -201 14 1 5 8 -143 113 -63 45 -116
85 -118 89 -2 5 -9 8 -15 8 -7 0 -7 -3 -1 -9z"/>
<path d="M1630 594 c0 -5 14 -29 31 -54 16 -25 53 -87 81 -138 55 -102 76
-121 28 -26 -55 109 -140 241 -140 218z"/>
</g>
</svg>
